/* XPM */
static char * maximizeI_xpm[] = {
"22 42 322 2",
"  	c None",
". 	c #FEFEFE",
"+ 	c #FFFFFF",
"@ 	c #F1F1F1",
"# 	c #EBEBEB",
"$ 	c #E9E9E9",
"% 	c #E5E5E5",
"& 	c #A4A4A3",
"* 	c #5D5D5C",
"= 	c #292929",
"- 	c #0F0F0F",
"; 	c #2C2C2C",
"> 	c #5D5D5D",
", 	c #AEADAD",
"' 	c #F0F0F0",
") 	c #E6E6E6",
"! 	c #696769",
"~ 	c #585858",
"{ 	c #9C9C9C",
"] 	c #C5C5C5",
"^ 	c #D7D7D7",
"/ 	c #CACACA",
"( 	c #A0A0A0",
"_ 	c #4B4B4B",
": 	c #6B6D6E",
"< 	c #F6F6F6",
"[ 	c #747474",
"} 	c #5B5B5B",
"| 	c #A9A9A9",
"1 	c #DDDDDD",
"2 	c #E8E8E8",
"3 	c #F9F9F9",
"4 	c #ECECEC",
"5 	c #D9D9D9",
"6 	c #AFAFAF",
"7 	c #757576",
"8 	c #EFEFEF",
"9 	c #9C9C9B",
"0 	c #414141",
"a 	c #7B7B7B",
"b 	c #B9B9B9",
"c 	c #D4D4D4",
"d 	c #D3D3D3",
"e 	c #BBBBBB",
"f 	c #777777",
"g 	c #474747",
"h 	c #959494",
"i 	c #EAEAEA",
"j 	c #DADADA",
"k 	c #4E4E4E",
"l 	c #6C6C6C",
"m 	c #ABABAB",
"n 	c #A2A2A2",
"o 	c #B2B2B2",
"p 	c #B5B5B5",
"q 	c #C1C1C1",
"r 	c #BABABA",
"s 	c #A6A6A6",
"t 	c #737373",
"u 	c #DCDCDC",
"v 	c #EEEEEE",
"w 	c #DBDBDB",
"x 	c #454545",
"y 	c #999999",
"z 	c #AAAAAA",
"A 	c #B0B0B0",
"B 	c #C0C0C0",
"C 	c #C7C7C7",
"D 	c #C2C2C2",
"E 	c #B6B6B6",
"F 	c #8F8F8F",
"G 	c #F4F4F4",
"H 	c #CECECE",
"I 	c #595959",
"J 	c #C9C9C9",
"K 	c #CFCFCF",
"L 	c #D5D5D5",
"M 	c #D8D8D8",
"N 	c #B1B1B1",
"O 	c #5E5E5E",
"P 	c #D2D2D2",
"Q 	c #EDEDED",
"R 	c #676767",
"S 	c #E2E2E2",
"T 	c #E0E0E0",
"U 	c #D0D0D0",
"V 	c #C3C3C3",
"W 	c #626262",
"X 	c #BFBFBF",
"Y 	c #B8B8B8",
"Z 	c #6D6D6D",
"` 	c #D1D1D1",
" .	c #F3F3F3",
"..	c #F7F7F7",
"+.	c #F5F5F5",
"@.	c #767676",
"#.	c #7C7C7C",
"$.	c #E7E7E7",
"%.	c #FBFBFB",
"&.	c #FAFAFA",
"*.	c #A7A7A7",
"=.	c #7A7A7A",
"-.	c #888888",
";.	c #898989",
">.	c #CCCCCC",
",.	c #FDFDFD",
"'.	c #FCFCFC",
").	c #878787",
"!.	c #8C8C8C",
"~.	c #9E9E9E",
"{.	c #6B6B6B",
"].	c #E4E4E4",
"^.	c #939393",
"/.	c #D6D6D6",
"(.	c #DEDEDE",
"_.	c #DFDFDF",
":.	c #797A7A",
"<.	c #565656",
"[.	c #9F9F9F",
"}.	c #727272",
"|.	c #5A5A5A",
"1.	c #7E7F7E",
"2.	c #CDCDCD",
"3.	c #B4B4B4",
"4.	c #898B8B",
"5.	c #4D4D4D",
"6.	c #434343",
"7.	c #424242",
"8.	c #4A4A4A",
"9.	c #656565",
"0.	c #8A8A8B",
"a.	c #B3B3B3",
"b.	c #CBCBCB",
"c.	c #E3E3E3",
"d.	c #BDBDBD",
"e.	c #A2A3A7",
"f.	c #8E8E92",
"g.	c #7F8080",
"h.	c #7F7F7F",
"i.	c #8F9090",
"j.	c #A2A6A6",
"k.	c #ACACAC",
"l.	c #A6A6A4",
"m.	c #A5A5A5",
"n.	c #A7A7A8",
"o.	c #BCBCBC",
"p.	c #C8C8C8",
"q.	c #C6C6C6",
"r.	c #646464",
"s.	c #A4A4A2",
"t.	c #5B5B59",
"u.	c #252523",
"v.	c #090A05",
"w.	c #B3B2B2",
"x.	c #676067",
"y.	c #717171",
"z.	c #909090",
"A.	c #989898",
"B.	c #8D8D8D",
"C.	c #696969",
"D.	c #383838",
"E.	c #676E74",
"F.	c #F8F8F8",
"G.	c #6B706A",
"H.	c #3F4A3C",
"I.	c #738172",
"J.	c #97A290",
"K.	c #ACB2A5",
"L.	c #9FA899",
"M.	c #A7B0A3",
"N.	c #98A397",
"O.	c #55665A",
"P.	c #3B5041",
"Q.	c #63676A",
"R.	c #999894",
"S.	c #1D3825",
"T.	c #385233",
"U.	c #5A734C",
"V.	c #6C845A",
"W.	c #5C7049",
"X.	c #3C502B",
"Y.	c #576B45",
"Z.	c #738A66",
"`.	c #536E4A",
" +	c #385336",
".+	c #12321A",
"++	c #455441",
"@+	c #1C3F16",
"#+	c #426232",
"$+	c #496B32",
"%+	c #4F7237",
"&+	c #325219",
"*+	c #0B2900",
"=+	c #2A4810",
"-+	c #53743D",
";+	c #486B35",
">+	c #395C2C",
",+	c #1C3F19",
"'+	c #3A4F3E",
")+	c #1F3818",
"!+	c #32591E",
"~+	c #3F6925",
"{+	c #406D28",
"]+	c #4A7734",
"^+	c #396120",
"/+	c #1C4101",
"(+	c #325916",
"_+	c #4E7630",
":+	c #416D25",
"<+	c #3D6727",
"[+	c #3C6432",
"}+	c #1B3E1D",
"|+	c #113509",
"1+	c #47712D",
"2+	c #447322",
"3+	c #0C3E00",
"4+	c #124300",
"5+	c #164400",
"6+	c #154200",
"7+	c #1B4700",
"8+	c #124000",
"9+	c #174800",
"0+	c #47772B",
"a+	c #436D31",
"b+	c #113F10",
"c+	c #2D5822",
"d+	c #517934",
"e+	c #568730",
"f+	c #144900",
"g+	c #1C5201",
"h+	c #28580D",
"i+	c #2B5A0D",
"j+	c #2C5B08",
"k+	c #1B4B00",
"l+	c #1C5000",
"m+	c #4D802C",
"n+	c #44702F",
"o+	c #1B5117",
"p+	c #CBCAC8",
"q+	c #2F5F23",
"r+	c #4D7332",
"s+	c #618F39",
"t+	c #689D44",
"u+	c #76AB52",
"v+	c #5F903B",
"w+	c #3A6713",
"x+	c #538029",
"y+	c #79A94E",
"z+	c #6FA144",
"A+	c #63953F",
"B+	c #52803C",
"C+	c #326A2B",
"D+	c #C0C7BE",
"E+	c #5C7852",
"F+	c #43672D",
"G+	c #6F974A",
"H+	c #7DAC50",
"I+	c #84B253",
"J+	c #6C993A",
"K+	c #4C771B",
"L+	c #5E892B",
"M+	c #82AE50",
"N+	c #80AF52",
"O+	c #679642",
"P+	c #446E2E",
"Q+	c #557754",
"R+	c #D3D3D2",
"S+	c #E1E1E1",
"T+	c #7B946D",
"U+	c #49693C",
"V+	c #5A7A3D",
"W+	c #85AD5A",
"X+	c #8DB259",
"Y+	c #739941",
"Z+	c #537720",
"`+	c #678E35",
" @	c #91B262",
".@	c #8AB262",
"+@	c #689049",
"@@	c #2D541D",
"#@	c #7B957C",
"$@	c #9EA1A1",
"%@	c #3F5B44",
"&@	c #3A562A",
"*@	c #729151",
"=@	c #8EAF62",
"-@	c #99B26E",
";@	c #91AD67",
">@	c #96B26F",
",@	c #93B26F",
"'@	c #688A4E",
")@	c #385828",
"!@	c #1F441D",
"~@	c #9EA09A",
"{@	c #788480",
"]@	c #3D573C",
"^@	c #334D20",
"/@	c #4B6432",
"(@	c #708556",
"_@	c #809467",
":@	c #768A5E",
"<@	c #546C42",
"[@	c #304926",
"}@	c #1E3D1F",
"|@	c #7B817D",
"1@	c #868F8C",
"2@	c #5B6660",
"3@	c #465246",
"4@	c #3F4C38",
"5@	c #3B492F",
"6@	c #455A33",
"7@	c #445533",
"8@	c #57604F",
"9@	c #848388",
"0@	c #A4A5AC",
"a@	c #858793",
"b@	c #73767F",
"c@	c #6C7079",
"d@	c #6D736F",
"e@	c #8A8E8E",
"f@	c #A2A8A9",
"g@	c #757575",
". + . + + + + + + + + + + + + + + + + . + + ",
"@ @ @ @ @ @ @ @ @ @ @ @ @ @ @ @ @ @ @ @ @ @ ",
"# # # # $ $ $ % & * = - ; > , % $ $ $ # # # ",
"@ @ @ @ @ ' ) ! ~ { ] ^ / ( _ : ) ' @ @ @ @ ",
"< < < < + < [ } | 1 2 3 4 5 6 > 7 < + < < < ",
"8 ' 8 ' 4 9 0 a b c 5 5 ^ d e f g h 4 8 ' ' ",
"$ i $ i j k l m n o e p q r s m t k u $ i i ",
"v 8 v 8 w x y z A B B C D E E s F _ c v 8 8 ",
"G G G G H I A m J K L M 5 K K o N O P G G G ",
"4 Q 4 Q r R B J M 5 $ S ) T P U V W X 4 Q Q ",
") 2 ) 2 Y Z b ` S v  ...+.8 ) j E @.A ) 2 2 ",
"i # i # D #.| T $.%.+ &.+ &.v Q *.=.B i # # ",
"' ' ' ' 5 -.;.>.< ,.'.+ < + ,./ ).!.j ' ' ' ",
") $.) $.^ ~.{.F j %.+ + + + ].^.Z 9 /.) $.$.",
"(._.(._.c e :.<.[ s ` i P [.}.|.1.r P (._._.",
"T T T T u 2.3.4.W 5.0 6.7.8.9.0.a.b.w T T T ",
"% % % % i c.P d.e.f.g.@.h.i.j.d.P c.i % % % ",
"5 j 5 j 5 M d C r k.l.m.n.A o.J d M 5 5 j j ",
"H H H H H H H / ] d.Y Y e B C b.H H H H H H ",
"b.b.b.b.J / / p.C C ] ] q.C J / J / / b.b.b.",
"r.r.r.r.r.r.r.r.r.r.r.r.r.r.r.r.r.r.r.r.r.r.",
"+ + + + + + + + + + + + + + + + + + + + + + ",
"@ @ @ @ @ @ @ @ @ @ @ @ @ @ @ @ @ @ @ @ @ @ ",
"$ $ $ $ $ $ $ % s.t.u.v.; <.w.% $ $ $ $ $ $ ",
"@ @ @ @ @ ' i x.I y.z.A.B.C.D.E.i ' @ @ @ @ ",
"+ + + + + F.G.H.I.J.K.L.M.N.O.P.Q.F.+ + + + ",
"@ @ @ @ 4 R.S.T.U.V.W.X.Y.Z.`. +.+h 4 @ @ @ ",
"$ $ $ $ 1 ++@+#+$+%+&+*+=+-+;+>+,+'+1 $ $ $ ",
"v v v v u )+!+~+{+]+^+/+(+_+:+<+[+}+u v v v ",
",.,.,.,.2 |+1+2+3+4+5+6+7+8+9+0+a+b+2 ,.,.,.",
"8 8 8 8 j c+d+e+f+g+h+i+j+k+l+m+n+o+j 8 8 8 ",
") ) ) ) p+q+r+s+t+u+v+w+x+y+z+A+B+C+D+) ) ) ",
"i i i i c E+F+G+H+I+J+K+L+M+N+O+P+Q+R+i i i ",
"........S+T+U+V+W+X+Y+Z+`+ @.@+@@@#@S ......",
"2 2 2 2 ^ $@%@&@*@=@-@;@>@,@'@)@!@~@/.2 2 2 ",
"(.(.(.(.c o.{@]@^@/@(@_@:@<@[@}@|@r P (.(.(.",
"T T T T u 2.3.1@2@3@4@5@6@7@8@9@a.b.w T T T ",
"i i i i i c.P d.0@a@b@c@d@e@f@d.P c.i i i i ",
"5 5 5 5 5 M d C r k.l.m.n.A o.J d M 5 5 5 5 ",
"H H H H H H H / ] d.Y Y e B C b.H H H H H H ",
"b.b.b.b.J / / p.C C ] ] q.C J / J / / b.b.b.",
"g@g@g@g@Z l l Z Z l l Z Z Z l l Z l l g@g@g@"};
