/* XPM */
static char * minimizeI_xpm[] = {
"22 42 323 2",
"  	c None",
". 	c #FEFEFE",
"+ 	c #FFFFFF",
"@ 	c #F1F1F1",
"# 	c #EBEBEB",
"$ 	c #E9E9E9",
"% 	c #E5E5E5",
"& 	c #A4A4A3",
"* 	c #5D5D5C",
"= 	c #292929",
"- 	c #0F0F0F",
"; 	c #2C2C2C",
"> 	c #5D5D5D",
", 	c #AEADAD",
"' 	c #F0F0F0",
") 	c #E6E6E6",
"! 	c #696769",
"~ 	c #585858",
"{ 	c #9C9C9C",
"] 	c #C5C5C5",
"^ 	c #D7D7D7",
"/ 	c #CACACA",
"( 	c #A0A0A0",
"_ 	c #4B4B4B",
": 	c #6B6D6E",
"< 	c #F6F6F6",
"[ 	c #747474",
"} 	c #5B5B5B",
"| 	c #A9A9A9",
"1 	c #DDDDDD",
"2 	c #E8E8E8",
"3 	c #F9F9F9",
"4 	c #ECECEC",
"5 	c #D9D9D9",
"6 	c #AFAFAF",
"7 	c #757576",
"8 	c #EFEFEF",
"9 	c #9C9C9B",
"0 	c #414141",
"a 	c #7B7B7B",
"b 	c #B9B9B9",
"c 	c #D4D4D4",
"d 	c #D3D3D3",
"e 	c #BBBBBB",
"f 	c #777777",
"g 	c #474747",
"h 	c #959494",
"i 	c #EAEAEA",
"j 	c #DADADA",
"k 	c #4E4E4E",
"l 	c #6C6C6C",
"m 	c #ABABAB",
"n 	c #A2A2A2",
"o 	c #B2B2B2",
"p 	c #B5B5B5",
"q 	c #C1C1C1",
"r 	c #BABABA",
"s 	c #A6A6A6",
"t 	c #737373",
"u 	c #DCDCDC",
"v 	c #EEEEEE",
"w 	c #DBDBDB",
"x 	c #454545",
"y 	c #999999",
"z 	c #AAAAAA",
"A 	c #B0B0B0",
"B 	c #C0C0C0",
"C 	c #C7C7C7",
"D 	c #C2C2C2",
"E 	c #B6B6B6",
"F 	c #8F8F8F",
"G 	c #F4F4F4",
"H 	c #CECECE",
"I 	c #595959",
"J 	c #C9C9C9",
"K 	c #CFCFCF",
"L 	c #D5D5D5",
"M 	c #D8D8D8",
"N 	c #B1B1B1",
"O 	c #5E5E5E",
"P 	c #D2D2D2",
"Q 	c #EDEDED",
"R 	c #676767",
"S 	c #E2E2E2",
"T 	c #E0E0E0",
"U 	c #D0D0D0",
"V 	c #C3C3C3",
"W 	c #626262",
"X 	c #BFBFBF",
"Y 	c #B8B8B8",
"Z 	c #6D6D6D",
"` 	c #D1D1D1",
" .	c #F3F3F3",
"..	c #F7F7F7",
"+.	c #F5F5F5",
"@.	c #767676",
"#.	c #7C7C7C",
"$.	c #E7E7E7",
"%.	c #FBFBFB",
"&.	c #FAFAFA",
"*.	c #A7A7A7",
"=.	c #7A7A7A",
"-.	c #888888",
";.	c #898989",
">.	c #CCCCCC",
",.	c #FDFDFD",
"'.	c #FCFCFC",
").	c #878787",
"!.	c #8C8C8C",
"~.	c #9E9E9E",
"{.	c #6B6B6B",
"].	c #E4E4E4",
"^.	c #939393",
"/.	c #D6D6D6",
"(.	c #DEDEDE",
"_.	c #DFDFDF",
":.	c #797A7A",
"<.	c #565656",
"[.	c #9F9F9F",
"}.	c #727272",
"|.	c #5A5A5A",
"1.	c #7E7F7E",
"2.	c #CDCDCD",
"3.	c #B4B4B4",
"4.	c #898B8B",
"5.	c #4D4D4D",
"6.	c #434343",
"7.	c #424242",
"8.	c #4A4A4A",
"9.	c #656565",
"0.	c #8A8A8B",
"a.	c #B3B3B3",
"b.	c #CBCBCB",
"c.	c #E3E3E3",
"d.	c #BDBDBD",
"e.	c #A2A3A7",
"f.	c #8E8E92",
"g.	c #7F8080",
"h.	c #7F7F7F",
"i.	c #8F9090",
"j.	c #A2A6A6",
"k.	c #ACACAC",
"l.	c #A6A6A4",
"m.	c #A5A5A5",
"n.	c #A7A7A8",
"o.	c #BCBCBC",
"p.	c #C8C8C8",
"q.	c #C6C6C6",
"r.	c #646464",
"s.	c #A6A5A4",
"t.	c #61605E",
"u.	c #3D2324",
"v.	c #2D1515",
"w.	c #392526",
"x.	c #645655",
"y.	c #C2C0C0",
"z.	c #786C6C",
"A.	c #625253",
"B.	c #8B797B",
"C.	c #A79698",
"D.	c #A49195",
"E.	c #9D898C",
"F.	c #715C60",
"G.	c #685155",
"H.	c #8F767A",
"I.	c #F8F8F8",
"J.	c #906866",
"K.	c #78464A",
"L.	c #976F69",
"M.	c #AE8F82",
"N.	c #B2A594",
"O.	c #B2A393",
"P.	c #B2A899",
"Q.	c #B2998C",
"R.	c #8A6760",
"S.	c #633E3B",
"T.	c #90707B",
"U.	c #B3989F",
"V.	c #6D3828",
"W.	c #834E35",
"X.	c #A17454",
"Y.	c #B08960",
"Z.	c #AD8F62",
"`.	c #A68B5D",
" +	c #B09164",
".+	c #AD8B62",
"++	c #9E7455",
"@+	c #6B412D",
"#+	c #603D34",
"$+	c #BC9CA4",
"%+	c #8A4D52",
"&+	c #874D29",
"*+	c #8B562C",
"=+	c #996630",
"-+	c #9C6E32",
";+	c #9F7A3B",
">+	c #9A7838",
",+	c #9D7736",
"'+	c #996F32",
")+	c #9A6835",
"!+	c #906039",
"~+	c #5E3821",
"{+	c #954C3D",
"]+	c #7B3124",
"^+	c #965C2E",
"/+	c #A1672C",
"(+	c #9A6220",
"_+	c #9F6C25",
":+	c #A37B32",
"<+	c #9D7730",
"[+	c #9F742C",
"}+	c #A3732B",
"|+	c #9A631C",
"1+	c #9E672B",
"2+	c #7B4E26",
"3+	c #8E2D0A",
"4+	c #82371A",
"5+	c #9C6936",
"6+	c #9B631F",
"7+	c #713D00",
"8+	c #693A00",
"9+	c #694200",
"0+	c #674200",
"a+	c #6A4100",
"b+	c #6F4000",
"c+	c #6F3500",
"d+	c #A86F24",
"e+	c #8F5E2C",
"f+	c #922F06",
"g+	c #914827",
"h+	c #9E733D",
"i+	c #A17229",
"j+	c #6F4400",
"k+	c #674400",
"l+	c #644700",
"m+	c #684C03",
"n+	c #6E4D06",
"o+	c #733D00",
"p+	c #AD7725",
"q+	c #A97B42",
"r+	c #A14F1F",
"s+	c #CBCAC8",
"t+	c #9D5839",
"u+	c #8F6C36",
"v+	c #B29046",
"w+	c #AE903A",
"x+	c #B2A54C",
"y+	c #B2A552",
"z+	c #B2A659",
"A+	c #B2A65C",
"B+	c #B2994D",
"C+	c #B28F38",
"D+	c #B29140",
"E+	c #977138",
"F+	c #9D5D1D",
"G+	c #967556",
"H+	c #A38A53",
"I+	c #A9934B",
"J+	c #B2A149",
"K+	c #AFA445",
"L+	c #B2AE53",
"M+	c #B2B260",
"N+	c #B2AF59",
"O+	c #B2A04B",
"P+	c #B29341",
"Q+	c #B2914A",
"R+	c #826735",
"S+	c #886B59",
"T+	c #D3D3D2",
"U+	c #E1E1E1",
"V+	c #9C847A",
"W+	c #6F5C2C",
"X+	c #8B7B40",
"Y+	c #B2AD5E",
"Z+	c #AFB258",
"`+	c #ADAD54",
" @	c #B2B158",
".@	c #B2B263",
"+@	c #B2A862",
"@@	c #977D45",
"#@	c #5D4E26",
"$@	c #9A8779",
"%@	c #AAA4A7",
"&@	c #544629",
"*@	c #6A6030",
"=@	c #8A8649",
"-@	c #A9AA60",
";@	c #B2B26C",
">@	c #B2B26B",
",@	c #B2B060",
"'@	c #AAA25B",
")@	c #988853",
"!@	c #62552E",
"~@	c #454123",
"{@	c #A49D99",
"]@	c #897D81",
"^@	c #5A5432",
"/@	c #4F4D23",
"(@	c #696A39",
"_@	c #8C905A",
":@	c #9EA167",
"<@	c #949256",
"[@	c #7B7742",
"}@	c #443F1C",
"|@	c #3E3A23",
"1@	c #807B77",
"2@	c #8C8889",
"3@	c #626353",
"4@	c #565B3B",
"5@	c #433453",
"6@	c #494351",
"7@	c #474843",
"8@	c #4A4A42",
"9@	c #625C5C",
"0@	c #8B848B",
"a@	c #A5A7AC",
"b@	c #83838D",
"c@	c #827E7F",
"d@	c #757573",
"e@	c #767873",
"f@	c #8D8F8C",
"g@	c #A3AAAA",
"h@	c #757575",
". + . + + + + + + + + + + + + + + + + . + + ",
"@ @ @ @ @ @ @ @ @ @ @ @ @ @ @ @ @ @ @ @ @ @ ",
"# # # # $ $ $ % & * = - ; > , % $ $ $ # # # ",
"@ @ @ @ @ ' ) ! ~ { ] ^ / ( _ : ) ' @ @ @ @ ",
"< < < < + < [ } | 1 2 3 4 5 6 > 7 < + < < < ",
"8 ' 8 ' 4 9 0 a b c 5 5 ^ d e f g h 4 8 ' ' ",
"$ i $ i j k l m n o e p q r s m t k u $ i i ",
"v 8 v 8 w x y z A B B C D E E s F _ c v 8 8 ",
"G G G G H I A m J K L M 5 K K o N O P G G G ",
"4 Q 4 Q r R B J M 5 $ S ) T P U V W X 4 Q Q ",
") 2 ) 2 Y Z b ` S v  ...+.8 ) j E @.A ) 2 2 ",
"i # i # D #.| T $.%.+ &.+ &.v Q *.=.B i # # ",
"' ' ' ' 5 -.;.>.< ,.'.+ < + ,./ ).!.j ' ' ' ",
") $.) $.^ ~.{.F j %.+ + + + ].^.Z 9 /.) $.$.",
"(._.(._.c e :.<.[ s ` i P [.}.|.1.r P (._._.",
"T T T T u 2.3.4.W 5.0 6.7.8.9.0.a.b.w T T T ",
"% % % % i c.P d.e.f.g.@.h.i.j.d.P c.i % % % ",
"5 j 5 j 5 M d C r k.l.m.n.A o.J d M 5 5 j j ",
"H H H H H H H / ] d.Y Y e B C b.H H H H H H ",
"b.b.b.b.J / / p.C C ] ] q.C J / J / / b.b.b.",
"r.r.r.r.r.r.r.r.r.r.r.r.r.r.r.r.r.r.r.r.r.r.",
"+ + + + + + + + + + + + + + + + + + + + + + ",
"@ @ @ @ @ @ @ @ @ @ @ @ @ @ @ @ @ @ @ @ @ @ ",
"$ $ $ $ $ $ $ % s.t.u.v.w.x.y.% $ $ $ $ $ $ ",
"@ @ @ @ @ ' i z.A.B.C.D.E.F.G.H.i ' @ @ @ @ ",
"+ + + + + I.J.K.L.M.N.O.P.Q.R.S.T.I.+ + + + ",
"@ @ @ @ 4 U.V.W.X.Y.Z.`. +.+++@+#+$+4 @ @ @ ",
"$ $ $ $ 1 %+&+*+=+-+;+>+,+'+)+!+~+{+1 $ $ $ ",
"v v v v u ]+^+/+(+_+:+<+[+}+|+1+2+3+u v v v ",
",.,.,.,.2 4+5+6+7+8+9+0+a+b+c+d+e+f+2 ,.,.,.",
"8 8 8 8 j g+h+i+j+k+l+m+n+j+o+p+q+r+j 8 8 8 ",
") ) ) ) s+t+u+v+w+x+y+z+A+B+C+D+E+F+P ) ) ) ",
"i i i i c G+H+I+J+K+L+M+N+O+P+Q+R+S+T+i i i ",
"........U+V+W+X+Y+M+Z+`+ @.@+@@@#@$@S ......",
"2 2 2 2 ^ %@&@*@=@-@;@>@,@'@)@!@~@{@/.2 2 2 ",
"(.(.(.(.c o.]@^@/@(@_@:@<@[@}@|@1@r P (.(.(.",
"T T T T u 2.3.2@3@4@5@6@7@8@9@0@a.b.w T T T ",
"i i i i i c.P d.a@b@c@d@e@f@g@d.P c.i i i i ",
"5 5 5 5 5 M d C r k.l.m.n.A o.J d M 5 5 5 5 ",
"H H H H H H H / ] d.Y Y e B C b.H H H H H H ",
"b.b.b.b.J / / p.C C ] ] q.C J / J / / b.b.b.",
"h@h@h@h@Z l l Z Z l l Z Z Z l l Z l l h@h@h@"};
