/* XPM */
static char * restoreI_xpm[] = {
"22 42 276 2",
"  	c None",
". 	c #FEFEFE",
"+ 	c #FFFFFF",
"@ 	c #F1F1F1",
"# 	c #EBEBEB",
"$ 	c #E9E9E9",
"% 	c #E5E5E5",
"& 	c #A4A4A3",
"* 	c #5D5D5C",
"= 	c #292929",
"- 	c #0F0F0F",
"; 	c #2C2C2C",
"> 	c #5D5D5D",
", 	c #AEADAD",
"' 	c #F0F0F0",
") 	c #E6E6E6",
"! 	c #696769",
"~ 	c #585858",
"{ 	c #9C9C9C",
"] 	c #C5C5C5",
"^ 	c #D7D7D7",
"/ 	c #CACACA",
"( 	c #A0A0A0",
"_ 	c #4B4B4B",
": 	c #6B6D6E",
"< 	c #F6F6F6",
"[ 	c #747474",
"} 	c #5B5B5B",
"| 	c #A9A9A9",
"1 	c #DDDDDD",
"2 	c #E8E8E8",
"3 	c #F9F9F9",
"4 	c #ECECEC",
"5 	c #D9D9D9",
"6 	c #AFAFAF",
"7 	c #757576",
"8 	c #EFEFEF",
"9 	c #9C9C9B",
"0 	c #414141",
"a 	c #7B7B7B",
"b 	c #B9B9B9",
"c 	c #D4D4D4",
"d 	c #D3D3D3",
"e 	c #BBBBBB",
"f 	c #777777",
"g 	c #474747",
"h 	c #959494",
"i 	c #EAEAEA",
"j 	c #DADADA",
"k 	c #4E4E4E",
"l 	c #6C6C6C",
"m 	c #ABABAB",
"n 	c #A2A2A2",
"o 	c #B2B2B2",
"p 	c #B5B5B5",
"q 	c #C1C1C1",
"r 	c #BABABA",
"s 	c #A6A6A6",
"t 	c #737373",
"u 	c #DCDCDC",
"v 	c #EEEEEE",
"w 	c #DBDBDB",
"x 	c #454545",
"y 	c #999999",
"z 	c #AAAAAA",
"A 	c #B0B0B0",
"B 	c #C0C0C0",
"C 	c #C7C7C7",
"D 	c #C2C2C2",
"E 	c #B6B6B6",
"F 	c #8F8F8F",
"G 	c #F4F4F4",
"H 	c #CECECE",
"I 	c #595959",
"J 	c #C9C9C9",
"K 	c #CFCFCF",
"L 	c #D5D5D5",
"M 	c #D8D8D8",
"N 	c #B1B1B1",
"O 	c #5E5E5E",
"P 	c #D2D2D2",
"Q 	c #EDEDED",
"R 	c #676767",
"S 	c #E2E2E2",
"T 	c #E0E0E0",
"U 	c #D0D0D0",
"V 	c #C3C3C3",
"W 	c #626262",
"X 	c #BFBFBF",
"Y 	c #B8B8B8",
"Z 	c #6D6D6D",
"` 	c #D1D1D1",
" .	c #F3F3F3",
"..	c #F7F7F7",
"+.	c #F5F5F5",
"@.	c #767676",
"#.	c #7C7C7C",
"$.	c #E7E7E7",
"%.	c #FBFBFB",
"&.	c #FAFAFA",
"*.	c #A7A7A7",
"=.	c #7A7A7A",
"-.	c #888888",
";.	c #898989",
">.	c #CCCCCC",
",.	c #FDFDFD",
"'.	c #FCFCFC",
").	c #878787",
"!.	c #8C8C8C",
"~.	c #9E9E9E",
"{.	c #6B6B6B",
"].	c #E4E4E4",
"^.	c #939393",
"/.	c #D6D6D6",
"(.	c #DEDEDE",
"_.	c #DFDFDF",
":.	c #797A7A",
"<.	c #565656",
"[.	c #9F9F9F",
"}.	c #727272",
"|.	c #5A5A5A",
"1.	c #7E7F7E",
"2.	c #CDCDCD",
"3.	c #B4B4B4",
"4.	c #898B8B",
"5.	c #4D4D4D",
"6.	c #434343",
"7.	c #424242",
"8.	c #4A4A4A",
"9.	c #656565",
"0.	c #8A8A8B",
"a.	c #B3B3B3",
"b.	c #CBCBCB",
"c.	c #E3E3E3",
"d.	c #BDBDBD",
"e.	c #A2A3A7",
"f.	c #8E8E92",
"g.	c #7F8080",
"h.	c #7F7F7F",
"i.	c #8F9090",
"j.	c #A2A6A6",
"k.	c #ACACAC",
"l.	c #A6A6A4",
"m.	c #A5A5A5",
"n.	c #A7A7A8",
"o.	c #BCBCBC",
"p.	c #C8C8C8",
"q.	c #C6C6C6",
"r.	c #757575",
"s.	c #A4A4A2",
"t.	c #F8F8F8",
"u.	c #443751",
"v.	c #75737F",
"w.	c #8D8D94",
"x.	c #908E92",
"y.	c #8B868A",
"z.	c #6A626B",
"A.	c #423748",
"B.	c #766388",
"C.	c #A198B1",
"D.	c #A99FB2",
"E.	c #A499AF",
"F.	c #A89AB1",
"G.	c #A191AE",
"H.	c #6F5E80",
"I.	c #462763",
"J.	c #5B3A76",
"K.	c #7B6292",
"L.	c #88749D",
"M.	c #937CAB",
"N.	c #9E85B2",
"O.	c #9379A8",
"P.	c #81659B",
"Q.	c #8065A1",
"R.	c #523A70",
"S.	c #3A2550",
"T.	c #949494",
"U.	c #60377F",
"V.	c #5E357A",
"W.	c #653F80",
"X.	c #765690",
"Y.	c #7B5596",
"Z.	c #734E8A",
"`.	c #805896",
" +	c #7A5297",
".+	c #6C4490",
"++	c #502C77",
"@+	c #3E205E",
"#+	c #5D2D7A",
"$+	c #764094",
"%+	c #7D4D9C",
"&+	c #653D82",
"*+	c #55266E",
"=+	c #401253",
"-+	c #572767",
";+	c #744488",
">+	c #714190",
",+	c #673A8D",
"'+	c #5D3581",
")+	c #723E8C",
"!+	c #8649A5",
"~+	c #844DA3",
"{+	c #623480",
"]+	c #4E195F",
"^+	c #562262",
"/+	c #4E1A55",
"(+	c #673171",
"_+	c #8C57A3",
":+	c #8453A6",
"<+	c #6B3F8F",
"[+	c #804EA4",
"}+	c #8B56AE",
"|+	c #8A5BA3",
"1+	c #572C62",
"2+	c #522A64",
"3+	c #5F3569",
"4+	c #522455",
"5+	c #6B3971",
"6+	c #9965AB",
"7+	c #8A57A5",
"8+	c #7C4A99",
"9+	c #7E4CA0",
"0+	c #9865B2",
"a+	c #A375B2",
"b+	c #764B7E",
"c+	c #603B6C",
"d+	c #69426F",
"e+	c #643A67",
"f+	c #724479",
"g+	c #A473B2",
"h+	c #9A6BB2",
"i+	c #794B90",
"j+	c #784994",
"k+	c #9467AD",
"l+	c #B184B2",
"m+	c #996F9B",
"n+	c #7B5D80",
"o+	c #6E4D6E",
"p+	c #8C678D",
"q+	c #9A73A3",
"r+	c #AC80B2",
"s+	c #9C73B2",
"t+	c #734E83",
"u+	c #795091",
"v+	c #845E94",
"w+	c #AB84B2",
"x+	c #B28FB2",
"y+	c #B29CB2",
"z+	c #B096AD",
"A+	c #B29BB2",
"B+	c #AD8CB2",
"C+	c #B18EB2",
"D+	c #826293",
"E+	c #543A5C",
"F+	c #785983",
"G+	c #74557F",
"H+	c #8B6C8F",
"I+	c #AD8DA7",
"J+	c #AD9BA9",
"K+	c #B2A0AD",
"L+	c #B29DAD",
"M+	c #9F87A3",
"N+	c #90779B",
"O+	c #5C4869",
"P+	c #503E54",
"Q+	c #745D78",
"R+	c #5F485E",
"S+	c #675362",
"T+	c #908390",
"U+	c #867782",
"V+	c #81727B",
"W+	c #71606F",
"X+	c #534359",
"Y+	c #50445A",
"Z+	c #A5A6AA",
"`+	c #A4A8A9",
". + . + + + + + + + + + + + + + + + + . + + ",
"@ @ @ @ @ @ @ @ @ @ @ @ @ @ @ @ @ @ @ @ @ @ ",
"# # # # $ $ $ % & * = - ; > , % $ $ $ # # # ",
"@ @ @ @ @ ' ) ! ~ { ] ^ / ( _ : ) ' @ @ @ @ ",
"< < < < + < [ } | 1 2 3 4 5 6 > 7 < + < < < ",
"8 ' 8 ' 4 9 0 a b c 5 5 ^ d e f g h 4 8 ' ' ",
"$ i $ i j k l m n o e p q r s m t k u $ i i ",
"v 8 v 8 w x y z A B B C D E E s F _ c v 8 8 ",
"G G G G H I A m J K L M 5 K K o N O P G G G ",
"4 Q 4 Q r R B J M 5 $ S ) T P U V W X 4 Q Q ",
") 2 ) 2 Y Z b ` S v  ...+.8 ) j E @.A ) 2 2 ",
"i # i # D #.| T $.%.+ &.+ &.v Q *.=.B i # # ",
"' ' ' ' 5 -.;.>.< ,.'.+ < + ,./ ).!.j ' ' ' ",
") $.) $.^ ~.{.F j %.+ + + + ].^.Z 9 /.) $.$.",
"(._.(._.c e :.<.[ s ` i P [.}.|.1.r P (._._.",
"T T T T u 2.3.4.W 5.0 6.7.8.9.0.a.b.w T T T ",
"% % % % i c.P d.e.f.g.@.h.i.j.d.P c.i % % % ",
"5 j 5 j 5 M d C r k.l.m.n.A o.J d M 5 5 j j ",
"H H H H H H H / ] d.Y Y e B C b.H H H H H H ",
"b.b.b.b.J / / p.C C ] ] q.C J / J / / b.b.b.",
"r.r.r.r.Z l l Z Z l l Z Z Z l l Z l l r.r.r.",
"+ + + + + + + + + + + + + + + + + + + + + + ",
"@ @ @ @ @ @ @ @ @ @ @ @ @ @ @ @ @ @ @ @ @ @ ",
"$ $ $ $ @ ' i 1 s.* = - ; > z (.i ' @ $ $ $ ",
"@ @ @ @ + t.S ! u.v.w.x.y.z.A.: S t.+ @ @ @ ",
"+ + + + 4 (.[ } B.C.D.E.F.G.H.> 7 _.4 + + + ",
"@ @ @ @ 1 9 I.J.K.L.M.N.O.P.Q.R.S.T.1 @ @ @ ",
"$ $ $ $ j k U.V.W.X.Y.Z.`. +.+++@+k u $ $ $ ",
"v v v v (.x #+$+%+&+*+=+-+;+>+,+'+_ M v v v ",
",.,.,.,.2.I )+!+~+{+]+^+/+(+_+:+<+O ` ,.,.,.",
"8 8 8 8 r R [+}+|+1+2+3+4+5+6+7+8+W X 8 8 8 ",
") ) ) ) Y Z 9+0+a+b+c+d+e+f+g+h+i+@.A ) ) ) ",
"i i i i ] #.j+k+l+m+n+o+p+q+r+s+t+=.V i i i ",
"........d -.u+v+w+x+y+z+A+B+C+D+E+!.P ......",
"2 2 2 2 c ~.F+G+H+I+J+K+L+M+N+O+P+9 P 2 2 2 ",
"(.(.(.(.u J :.Q+R+S+T+U+V+W+X+Y+1.p.w (.(.(.",
"T T T T i c.2.4.W 5.0 6.7.8.9.0.>.c.i T T T ",
"i i i i 5 M d C Z+f.g.@.h.i.`+J d M 5 i i i ",
"5 5 5 5 5 M d C r k.l.m.n.A o.J d M 5 5 5 5 ",
"H H H H H H H / ] d.Y Y e B C b.H H H H H H ",
"b.b.b.b.J / / p.C C ] ] q.C J / J / / b.b.b.",
"r.r.r.r.Z l l Z Z l l Z Z Z l l Z l l r.r.r."};
